<svg aria-hidden="true" style="position: absolute; width: 0; height: 0; overflow: hidden;" version="1.1" xmlns="http://www.w3.org/2000/svg" xmlns:xlink="http://www.w3.org/1999/xlink">
<defs>
<symbol id="icon-map-pin" viewBox="0 0 32 32">
<path d="M16 0c-1.702-0.080-3.402 0.197-4.991 0.812s-3.032 1.555-4.237 2.76c-1.205 1.205-2.145 2.648-2.76 4.237s-0.891 3.289-0.812 4.991c0 4.032 3.2 8 4.8 9.6s8 9.6 8 9.6c0 0 6.4-8 8-9.6s4.8-5.568 4.8-9.6c0.080-1.702-0.197-3.402-0.812-4.991s-1.555-3.032-2.76-4.237c-1.205-1.205-2.648-2.145-4.237-2.76s-3.289-0.891-4.991-0.812zM16 18c-1.028 0-2.034-0.305-2.889-0.876s-1.522-1.384-1.915-2.334-0.497-1.996-0.296-3.004c0.201-1.009 0.696-1.935 1.423-2.662s1.654-1.223 2.662-1.423c1.009-0.201 2.054-0.098 3.004 0.296s1.762 1.060 2.334 1.915 0.876 1.86 0.876 2.889c0 0.683-0.134 1.359-0.396 1.99s-0.644 1.204-1.127 1.687c-0.483 0.483-1.056 0.866-1.687 1.127s-1.307 0.396-1.99 0.396z"></path>
</symbol>
<symbol id="icon-trash" viewBox="0 0 32 32">
<path d="M12 4h8M4 8h24M6.66 8l0.8 12c0.16 2.24 0.24 3.36 0.6 4.26 0.67 1.625 1.985 2.869 3.618 3.427l0.042 0.013c0.92 0.3 2.040 0.3 4.28 0.3s3.36 0 4.28-0.3c1.675-0.571 2.99-1.815 3.645-3.4l0.015-0.040c0.36-0.9 0.44-2 0.6-4.24l0.8-12.020"></path>
</symbol>
<symbol id="icon-pencil" viewBox="0 0 32 32">
<path d="M3.34 28.66l7.4-2.84c0.46-0.2 0.7-0.28 0.92-0.4l0.56-0.36q0.26-0.18 0.74-0.68l15.040-15.040c0.612-0.669 0.986-1.564 0.986-2.546 0-2.088-1.692-3.78-3.78-3.78-0.982 0-1.877 0.375-2.549 0.989l0.003-0.003-15.040 15.040c-0.36 0.36-0.54 0.54-0.68 0.74l-0.36 0.56q-0.16 0.26-0.4 0.92zM3.34 28.66l2.74-7.12c0.2-0.52 0.3-0.78 0.46-0.9 0.098-0.073 0.222-0.117 0.357-0.117 0.051 0 0.1 0.006 0.148 0.018l-0.004-0.001c0.2 0.040 0.4 0.24 0.8 0.62l3 3c0.4 0.4 0.58 0.6 0.6 0.8q0.060 0.28-0.080 0.5c-0.12 0.16-0.4 0.26-0.9 0.46z"></path>
</symbol>
</defs>
</svg>
