<svg aria-hidden="true" style="position: absolute; width: 0; height: 0; overflow: hidden;" version="1.1" xmlns="http://www.w3.org/2000/svg" xmlns:xlink="http://www.w3.org/1999/xlink">
<defs>
<symbol id="icon-map-pin" viewBox="0 0 32 32">
<path d="M16 0c-1.702-0.080-3.402 0.197-4.991 0.812s-3.032 1.555-4.237 2.76c-1.205 1.205-2.145 2.648-2.76 4.237s-0.891 3.289-0.812 4.991c0 4.032 3.2 8 4.8 9.6s8 9.6 8 9.6c0 0 6.4-8 8-9.6s4.8-5.568 4.8-9.6c0.080-1.702-0.197-3.402-0.812-4.991s-1.555-3.032-2.76-4.237c-1.205-1.205-2.648-2.145-4.237-2.76s-3.289-0.891-4.991-0.812zM16 18c-1.028 0-2.034-0.305-2.889-0.876s-1.522-1.384-1.915-2.334-0.497-1.996-0.296-3.004c0.201-1.009 0.696-1.935 1.423-2.662s1.654-1.223 2.662-1.423c1.009-0.201 2.054-0.098 3.004 0.296s1.762 1.060 2.334 1.915 0.876 1.86 0.876 2.889c0 0.683-0.134 1.359-0.396 1.99s-0.644 1.204-1.127 1.687c-0.483 0.483-1.056 0.866-1.687 1.127s-1.307 0.396-1.99 0.396z"></path>
</symbol>
</defs>
</svg>
